<svg width="213" height="256" viewBox="0 0 213 256" fill="none" xmlns="http://www.w3.org/2000/svg">
<path d="M144.492 53.0905C149.615 63.3171 174.362 83.7811 183.603 87.7569C192.845 91.7327 193.317 30.2165 194.504 27.1873C195.692 24.1581 139.37 42.8639 144.492 53.0905Z" fill="url(#paint0_radial_928_1395)" stroke="url(#paint1_linear_928_1395)" stroke-width="1.27897"/>
<path d="M146.927 53.5926C162.842 58.2895 177.462 71.998 183.309 85.8717C189.157 99.7454 200.947 32.4798 195.504 27.8191C190.06 23.1584 131.011 48.8957 146.927 53.5926Z" fill="url(#paint2_linear_928_1395)" stroke="url(#paint3_linear_928_1395)" stroke-width="1.27897"/>
<path d="M175.579 71.8173C187.149 55.1114 193.811 52.2972 195.69 31.4706C195.437 28.8145 195.437 27.8026 192.148 28.3085C187.705 47.2995 180.597 53.4277 167.105 63.4697C170.717 66.4987 172.346 67.959 175.579 71.8173Z" fill="#081936"/>
<ellipse cx="15.8099" cy="4.51711" rx="15.8099" ry="4.51711" transform="matrix(-0.342846 0.939392 0.939391 0.342848 204.368 119.832)" fill="#2753F9"/>
<ellipse cx="15.8099" cy="4.51711" rx="15.8099" ry="4.51711" transform="matrix(-0.342846 0.939392 0.939391 0.342848 204.368 119.832)" fill="url(#paint4_linear_928_1395)"/>
<ellipse cx="15.8099" cy="15.8099" rx="15.8099" ry="15.8099" transform="matrix(0.970082 -0.242778 0.242776 0.970082 5.47266 225.326)" fill="url(#paint5_radial_928_1395)"/>
<path d="M184.445 125.894C184.482 125.011 184.942 124.202 185.649 123.671C194.485 117.032 199.412 115.095 205.904 115.176C207.186 115.192 208.169 116.293 208.11 117.575C207.442 132.089 204.335 140.135 195.366 152.122C194.846 152.816 194.026 153.222 193.158 153.222C190.989 153.222 189.676 150.828 190.396 148.782C193.73 139.309 183.923 138.215 184.445 125.894Z" fill="#081936"/>
<ellipse cx="22.1338" cy="6.32396" rx="22.1338" ry="6.32396" transform="matrix(0.749188 0.662357 -0.662355 0.74919 145.746 56.084)" fill="#2753F9"/>
<path d="M162.71 179.701C161.646 178.366 159.846 177.841 158.262 178.477C150.923 181.425 146.923 184.723 142.195 191.325C141.182 192.739 141.271 194.653 142.356 196.014L152.58 208.839C153.496 209.988 154.976 210.556 156.409 210.228C164.877 208.289 168.921 204.731 173.277 196.718C174.022 195.347 173.84 193.663 172.868 192.443L162.71 179.701Z" fill="#081936"/>
<path d="M25.0827 226.492C24.0247 228.429 24.7375 230.857 26.6748 231.915C28.612 232.973 31.0402 232.26 32.0982 230.323L28.5905 228.407L25.0827 226.492ZM126.588 205.712L129.86 208.008C136.733 198.209 141.271 189.545 143.735 182.045C146.189 174.575 146.676 167.972 145.033 162.51C143.343 156.895 139.523 152.914 134.344 150.703C129.297 148.547 123.122 148.125 116.469 149.067C90.0531 152.808 51.1645 178.734 25.0827 226.492L28.5905 228.407L32.0982 230.323C57.3634 184.061 94.3875 160.268 117.59 156.981C123.343 156.167 127.929 156.655 131.205 158.054C134.35 159.397 136.415 161.613 137.378 164.813C138.387 168.166 138.294 172.995 136.141 179.551C133.997 186.076 129.9 194.031 123.316 203.417L126.588 205.712Z" fill="url(#paint6_linear_928_1395)"/>
<path d="M136.075 200.779C189.903 124.037 79.9399 134.386 28.5929 228.406" stroke="#081936" stroke-width="7.99355" stroke-linecap="round" stroke-dasharray="2.4 7.99"/>
<path d="M111.061 52.8013C111.396 52.7972 111.733 52.7954 112.069 52.7954C157.054 52.7955 193.521 89.2627 193.521 134.248C193.521 179.233 157.054 215.701 112.069 215.701C111.733 215.701 111.396 215.698 111.061 215.694V215.701H86.5234V215.695C41.8882 215.287 5.83008 178.979 5.83008 134.248C5.83023 89.516 41.8883 53.208 86.5234 52.8003V52.7954H111.061V52.8013Z" fill="url(#paint7_linear_928_1395)"/>
<path d="M111.061 52.8013C111.396 52.7972 111.733 52.7954 112.069 52.7954C157.054 52.7955 193.521 89.2627 193.521 134.248C193.521 179.233 157.054 215.701 112.069 215.701C111.733 215.701 111.396 215.698 111.061 215.694V215.701H86.5234V215.695C41.8882 215.287 5.83008 178.979 5.83008 134.248C5.83023 89.516 41.8883 53.208 86.5234 52.8003V52.7954H111.061V52.8013Z" fill="url(#paint8_linear_928_1395)"/>
<path d="M111.061 52.8013H110.421V53.4486L111.068 53.4407L111.061 52.8013ZM112.069 52.7954V52.1559V52.7954ZM193.521 134.248H194.161H193.521ZM112.069 215.701V216.34V215.701ZM111.061 215.694L111.068 215.054L110.421 215.047V215.694H111.061ZM111.061 215.701V216.34H111.7V215.701H111.061ZM86.5234 215.701H85.884V216.34H86.5234V215.701ZM86.5234 215.695H87.1629V215.061L86.5293 215.055L86.5234 215.695ZM5.83008 134.248H5.19059H5.83008ZM86.5234 52.8003L86.5293 53.4398L87.1629 53.434V52.8003H86.5234ZM86.5234 52.7954V52.1559H85.884V52.7954H86.5234ZM111.061 52.7954H111.7V52.1559H111.061V52.7954ZM111.061 52.8013L111.068 53.4407C111.401 53.4367 111.735 53.4349 112.069 53.4349V52.7954V52.1559C111.73 52.1559 111.391 52.1577 111.053 52.1618L111.061 52.8013ZM112.069 52.7954V53.4349C156.701 53.4349 192.882 89.6158 192.882 134.248H193.521H194.161C194.161 88.9095 157.407 52.156 112.069 52.1559V52.7954ZM193.521 134.248H192.882C192.882 178.879 156.701 215.061 112.069 215.061V215.701V216.34C157.407 216.34 194.161 179.586 194.161 134.248H193.521ZM112.069 215.701V215.061C111.736 215.061 111.402 215.058 111.068 215.054L111.061 215.694L111.053 216.333C111.39 216.337 111.729 216.34 112.069 216.34V215.701ZM111.061 215.694H110.421V215.701H111.061H111.7V215.694H111.061ZM111.061 215.701V215.061H86.5234V215.701V216.34H111.061V215.701ZM86.5234 215.701H87.1629V215.695H86.5234H85.884V215.701H86.5234ZM86.5234 215.695L86.5293 215.055C42.2446 214.651 6.46956 178.628 6.46956 134.248H5.83008H5.19059C5.19059 179.33 41.5319 215.923 86.5176 216.334L86.5234 215.695ZM5.83008 134.248H6.46956C6.46971 89.8673 42.2447 53.8442 86.5293 53.4398L86.5234 52.8003L86.5176 52.1608C41.5319 52.5717 5.19075 89.1648 5.19059 134.248H5.83008ZM86.5234 52.8003H87.1629V52.7954H86.5234H85.884V52.8003H86.5234ZM86.5234 52.7954V53.4349H111.061V52.7954V52.1559H86.5234V52.7954ZM111.061 52.7954H110.421V52.8013H111.061H111.7V52.7954H111.061Z" fill="url(#paint9_linear_928_1395)"/>
<path d="M33.0819 179.736C34.146 178.402 35.946 177.876 37.53 178.513C44.8687 181.461 48.8687 184.759 53.5968 191.36C54.6101 192.775 54.5206 194.689 53.4359 196.05L43.2123 208.875C42.2962 210.024 40.8159 210.592 39.3832 210.264C30.9155 208.325 26.8715 204.767 22.5152 196.754C21.7698 195.383 21.9515 193.699 22.9243 192.479L33.0819 179.736Z" fill="#081936"/>
<ellipse cx="10.6242" cy="4.04733" rx="10.6242" ry="4.04733" transform="matrix(0.736439 0.676504 -0.676502 0.736441 27.8125 190.407)" fill="url(#paint10_radial_928_1395)"/>
<path d="M123.708 64.645C156.285 64.6452 182.688 91.1684 182.688 123.878C182.687 156.588 156.285 183.111 123.708 183.111C91.1312 183.111 64.7276 156.588 64.7275 123.878C64.7275 91.1683 91.1312 64.645 123.708 64.645Z" fill="#081936" stroke="url(#paint11_linear_928_1395)" stroke-width="1.59871"/>
<path d="M123.681 66.2461C155.368 66.2463 181.062 92.0463 181.062 123.88C181.061 155.713 155.368 181.513 123.681 181.514C91.9934 181.514 66.2999 155.714 66.2998 123.88C66.2998 92.0462 91.9933 66.2461 123.681 66.2461Z" fill="url(#paint12_radial_928_1395)" stroke="url(#paint13_radial_928_1395)" stroke-width="1.59871"/>
<path d="M99.7715 68.8389C116.402 63.1482 131.548 62.9004 147.577 68.8203C145.854 80.4762 135.808 89.4219 123.673 89.4219C111.544 89.4217 101.502 80.4856 99.7715 68.8389Z" fill="url(#paint14_radial_928_1395)"/>
<path d="M99.7715 68.8389C116.402 63.1482 131.548 62.9004 147.577 68.8203C145.854 80.4762 135.808 89.4219 123.673 89.4219C111.544 89.4217 101.502 80.4856 99.7715 68.8389Z" fill="url(#paint15_radial_928_1395)"/>
<path d="M99.7715 68.8389C116.402 63.1482 131.548 62.9004 147.577 68.8203C145.854 80.4762 135.808 89.4219 123.673 89.4219C111.544 89.4217 101.502 80.4856 99.7715 68.8389Z" stroke="url(#paint16_linear_928_1395)" stroke-width="1.59871"/>
<path d="M123.709 152.398C127.377 152.398 130.729 151.539 133.198 150.279C134.431 149.649 135.485 148.898 136.248 148.064C137.001 147.24 137.557 146.235 137.557 145.127C137.556 144.465 137.019 143.928 136.357 143.928H111.062C110.399 143.928 109.862 144.465 109.862 145.127C109.862 146.235 110.418 147.24 111.171 148.064C111.934 148.898 112.988 149.649 114.221 150.279C116.69 151.539 120.041 152.398 123.709 152.398Z" fill="#2753F9" stroke="#2753F9" stroke-width="2.39806" stroke-linecap="round" stroke-linejoin="round"/>
<g style="mix-blend-mode:plus-lighter" filter="url(#filter0_f_928_1395)">
<path d="M123.709 151.199C116.724 151.199 111.062 147.922 111.062 145.128H136.357C136.357 147.922 130.695 151.199 123.709 151.199Z" fill="#2753F9" fill-opacity="0.75"/>
<path d="M123.709 151.999C127.319 151.999 130.607 151.153 133.017 149.923C134.22 149.309 135.231 148.584 135.953 147.794C136.668 147.012 137.156 146.099 137.156 145.127C137.156 144.686 136.799 144.329 136.357 144.329H111.062C110.62 144.329 110.262 144.686 110.262 145.127C110.262 146.099 110.751 147.012 111.466 147.794C112.188 148.584 113.199 149.309 114.402 149.923C116.811 151.153 120.099 151.998 123.709 151.999Z" stroke="#2753F9" stroke-opacity="0.75" stroke-width="1.59871" stroke-linecap="round" stroke-linejoin="round"/>
</g>
<path d="M72.9517 53.1978C66.2695 66.3532 50.9099 81.2267 33.9381 87.8111C16.9664 94.3955 15.0249 30.5584 20.862 25.5607C26.6991 20.563 79.6339 40.0425 72.9517 53.1978Z" fill="url(#paint17_linear_928_1395)" stroke="url(#paint18_linear_928_1395)" stroke-width="1.27897"/>
<path d="M50.6199 77.2542C38.214 59.3403 22.0261 52.6631 20.0117 30.3305C20.7666 26.384 21.2768 25.7771 23.9324 25.7771C28.6972 46.1414 45.7652 58.0119 60.2323 68.7801C56.4228 72.7465 54.7861 74.2679 50.6199 77.2542Z" fill="#081936"/>
<ellipse cx="102.432" cy="118.314" rx="12.6479" ry="12.6479" fill="#2753F9"/>
<ellipse cx="144.169" cy="118.314" rx="12.6479" ry="12.6479" fill="#2753F9"/>
<g style="mix-blend-mode:plus-lighter" opacity="0.75" filter="url(#filter1_f_928_1395)">
<ellipse cx="102.432" cy="118.314" rx="12.6479" ry="12.6479" fill="#2753F9"/>
</g>
<g style="mix-blend-mode:plus-lighter" opacity="0.75" filter="url(#filter2_f_928_1395)">
<ellipse cx="144.169" cy="118.314" rx="12.6479" ry="12.6479" fill="#2753F9"/>
</g>
<path d="M1.09076 124.071C1.08465 121.965 2.60158 120.166 4.67235 119.782C23.7711 116.244 35.8872 114.569 54.7474 113.556C56.9998 113.435 58.9756 115.048 59.3032 117.28C60.9899 128.773 61.6174 136.571 61.97 147.999C62.0378 150.198 60.4596 152.108 58.2858 152.446C39.1763 155.412 26.998 155.488 7.85814 154.948C5.76009 154.889 3.98859 153.354 3.64131 151.284C1.83466 140.515 1.12028 134.259 1.09076 124.071Z" fill="#081936"/>
<path d="M201.547 118.222C201.753 116.554 203.154 115.277 204.835 115.277C206.676 115.277 208.16 116.801 208.058 118.64C207.287 132.489 204.115 140.43 195.368 152.121C194.848 152.815 194.028 153.221 193.16 153.221C190.991 153.221 189.658 150.843 190.747 148.967C197.09 138.035 200.058 130.32 201.547 118.222Z" fill="#081936"/>
<path d="M55.1832 131.925C55.9442 140.623 49.5097 148.291 40.8114 149.052C32.1131 149.813 5.67115 145.021 4.91015 136.323C4.14914 127.625 29.3573 118.314 38.0556 117.553C46.7539 116.792 54.4222 123.226 55.1832 131.925Z" fill="#2753F9"/>
<path d="M55.1832 131.925C55.9442 140.623 49.5097 148.291 40.8114 149.052C32.1131 149.813 5.67115 145.021 4.91015 136.323C4.14914 127.625 29.3573 118.314 38.0556 117.553C46.7539 116.792 54.4222 123.226 55.1832 131.925Z" fill="url(#paint19_linear_928_1395)"/>
<ellipse cx="40.3583" cy="134.122" rx="3.16197" ry="3.16198" fill="#081936"/>
<path d="M117.617 48.0503C117.739 48.7011 118.366 49.1296 119.017 49.0073C119.667 48.885 120.096 48.2583 119.974 47.6075L118.795 47.8289L117.617 48.0503ZM98.5889 8.26131C99.2016 11.7395 102.518 14.0625 105.996 13.4497C109.474 12.837 111.797 9.52061 111.185 6.0424C110.572 2.56418 107.255 0.241256 103.777 0.853993C100.299 1.46673 97.9761 4.7831 98.5889 8.26131ZM118.795 47.8289L119.974 47.6075C116.87 31.0849 113.67 21.7433 105.955 6.60734L104.887 7.15186L103.818 7.69637C111.431 22.6314 114.556 31.7557 117.617 48.0503L118.795 47.8289Z" fill="url(#paint20_radial_928_1395)"/>
<path d="M106.736 47.8152C106.93 47.0574 107.614 46.5262 108.396 46.5097C117.318 46.3216 122.869 46.4711 131.8 47.1929C132.563 47.2545 133.206 47.802 133.355 48.5522C133.949 51.5403 133.908 53.654 133.38 56.5911C133.223 57.4643 132.417 58.0613 131.532 57.9935C122.722 57.3179 117.192 56.9769 108.355 57.083C107.592 57.0922 106.897 56.6162 106.684 55.8841C105.754 52.6996 105.988 50.7419 106.736 47.8152Z" fill="#081936"/>
<g style="mix-blend-mode:plus-lighter" filter="url(#filter3_f_928_1395)">
<ellipse cx="10.8146" cy="4.11986" rx="10.8146" ry="4.11986" transform="matrix(0.736439 0.676504 -0.676502 0.736441 27.8164 190.409)" fill="url(#paint21_radial_928_1395)" fill-opacity="0.75"/>
</g>
<defs>
<filter id="filter0_f_928_1395" x="104.347" y="138.413" width="38.7249" height="19.5003" filterUnits="userSpaceOnUse" color-interpolation-filters="sRGB">
<feFlood flood-opacity="0" result="BackgroundImageFix"/>
<feBlend mode="normal" in="SourceGraphic" in2="BackgroundImageFix" result="shape"/>
<feGaussianBlur stdDeviation="2.55794" result="effect1_foregroundBlur_928_1395"/>
</filter>
<filter id="filter1_f_928_1395" x="84.6683" y="100.55" width="35.5276" height="35.5276" filterUnits="userSpaceOnUse" color-interpolation-filters="sRGB">
<feFlood flood-opacity="0" result="BackgroundImageFix"/>
<feBlend mode="normal" in="SourceGraphic" in2="BackgroundImageFix" result="shape"/>
<feGaussianBlur stdDeviation="2.55794" result="effect1_foregroundBlur_928_1395"/>
</filter>
<filter id="filter2_f_928_1395" x="126.406" y="100.55" width="35.5276" height="35.5276" filterUnits="userSpaceOnUse" color-interpolation-filters="sRGB">
<feFlood flood-opacity="0" result="BackgroundImageFix"/>
<feBlend mode="normal" in="SourceGraphic" in2="BackgroundImageFix" result="shape"/>
<feGaussianBlur stdDeviation="2.55794" result="effect1_foregroundBlur_928_1395"/>
</filter>
<filter id="filter3_f_928_1395" x="14.322" y="182.605" width="37.3434" height="36.3082" filterUnits="userSpaceOnUse" color-interpolation-filters="sRGB">
<feFlood flood-opacity="0" result="BackgroundImageFix"/>
<feBlend mode="normal" in="SourceGraphic" in2="BackgroundImageFix" result="shape"/>
<feGaussianBlur stdDeviation="5.11587" result="effect1_foregroundBlur_928_1395"/>
</filter>
<radialGradient id="paint0_radial_928_1395" cx="0" cy="0" r="1" gradientUnits="userSpaceOnUse" gradientTransform="translate(170.302 58.4677) rotate(48.4683) scale(42.9645 27.5965)">
<stop stop-color="#081936"/>
<stop offset="1" stop-color="#173193"/>
</radialGradient>
<linearGradient id="paint1_linear_928_1395" x1="168.792" y1="28.0719" x2="171.725" y2="88.5605" gradientUnits="userSpaceOnUse">
<stop stop-color="#B25864"/>
<stop offset="0.25" stop-color="#B84A4E"/>
<stop offset="0.5" stop-color="#7B5050"/>
<stop offset="0.75" stop-color="#514550"/>
<stop offset="1" stop-color="#514688"/>
</linearGradient>
<linearGradient id="paint2_linear_928_1395" x1="199.752" y1="27.0069" x2="142.202" y2="89.0623" gradientUnits="userSpaceOnUse">
<stop stop-color="#D80000"/>
<stop offset="1" stop-color="#173193"/>
</linearGradient>
<linearGradient id="paint3_linear_928_1395" x1="169.86" y1="28.3729" x2="172.769" y2="88.351" gradientUnits="userSpaceOnUse">
<stop stop-color="#B25864"/>
<stop offset="0.25" stop-color="#B84A4E"/>
<stop offset="0.5" stop-color="#7B5050"/>
<stop offset="0.75" stop-color="#514550"/>
<stop offset="1" stop-color="#514688"/>
</linearGradient>
<linearGradient id="paint4_linear_928_1395" x1="31.6184" y1="4.5141" x2="-10.3784" y2="10.8282" gradientUnits="userSpaceOnUse">
<stop stop-color="#2C28AA"/>
<stop offset="0.785" stop-color="#A4C4E4"/>
</linearGradient>
<radialGradient id="paint5_radial_928_1395" cx="0" cy="0" r="1" gradientUnits="userSpaceOnUse" gradientTransform="translate(22.7662 9.48595) rotate(125.062) scale(26.9805 26.9805)">
<stop stop-color="#2753F9"/>
<stop offset="1" stop-color="#D80000"/>
</radialGradient>
<linearGradient id="paint6_linear_928_1395" x1="34.3314" y1="242.931" x2="46.595" y2="134.674" gradientUnits="userSpaceOnUse">
<stop stop-color="#2753F9"/>
<stop offset="1" stop-color="#173193"/>
</linearGradient>
<linearGradient id="paint7_linear_928_1395" x1="5.83008" y1="161.947" x2="209.711" y2="94.1566" gradientUnits="userSpaceOnUse">
<stop stop-color="#081936"/>
<stop offset="1" stop-color="#2753F9"/>
</linearGradient>
<linearGradient id="paint8_linear_928_1395" x1="193.513" y1="134.194" x2="-60.7868" y2="146.78" gradientUnits="userSpaceOnUse">
<stop offset="0.215" stop-color="#A4C4E4"/>
<stop offset="1" stop-color="#2C28AA"/>
</linearGradient>
<linearGradient id="paint9_linear_928_1395" x1="99.6758" y1="52.7954" x2="99.6758" y2="215.701" gradientUnits="userSpaceOnUse">
<stop stop-color="#B25864"/>
<stop offset="0.25" stop-color="#B84A4E"/>
<stop offset="0.5" stop-color="#7B5050"/>
<stop offset="0.75" stop-color="#514550"/>
<stop offset="1" stop-color="#514688"/>
</linearGradient>
<radialGradient id="paint10_radial_928_1395" cx="0" cy="0" r="1" gradientUnits="userSpaceOnUse" gradientTransform="translate(10.5503 1.00154) rotate(89.4025) scale(7.09351 13.0191)">
<stop stop-color="#D80000"/>
<stop offset="1" stop-color="#2753F9"/>
</radialGradient>
<linearGradient id="paint11_linear_928_1395" x1="192.892" y1="65.4448" x2="65.527" y2="182.311" gradientUnits="userSpaceOnUse">
<stop stop-color="#2753F9"/>
<stop offset="1" stop-color="#FEFEFE"/>
</linearGradient>
<radialGradient id="paint12_radial_928_1395" cx="0" cy="0" r="1" gradientUnits="userSpaceOnUse" gradientTransform="translate(123.68 190.281) rotate(90) scale(61.7219 61.4545)">
<stop stop-color="#2753F9"/>
<stop offset="1" stop-color="#081936"/>
</radialGradient>
<radialGradient id="paint13_radial_928_1395" cx="0" cy="0" r="1" gradientUnits="userSpaceOnUse" gradientTransform="translate(123.68 156.511) rotate(89.9847) scale(119.278 118.762)">
<stop stop-color="#D80000"/>
<stop offset="1" stop-color="#081936"/>
</radialGradient>
<radialGradient id="paint14_radial_928_1395" cx="0" cy="0" r="1" gradientUnits="userSpaceOnUse" gradientTransform="translate(123.68 68.1006) rotate(-90) scale(13.7862 25.7398)">
<stop stop-color="#D80000"/>
<stop offset="1" stop-color="#5A0101"/>
</radialGradient>
<radialGradient id="paint15_radial_928_1395" cx="0" cy="0" r="1" gradientUnits="userSpaceOnUse" gradientTransform="translate(123.653 66.964) rotate(90) scale(23.2722 28.1185)">
<stop stop-color="#D80000"/>
<stop offset="1" stop-color="#173193"/>
</radialGradient>
<linearGradient id="paint16_linear_928_1395" x1="181.102" y1="63.6738" x2="64.488" y2="184.967" gradientUnits="userSpaceOnUse">
<stop stop-color="#2753F9"/>
<stop offset="1" stop-color="#FEFEFE"/>
</linearGradient>
<linearGradient id="paint17_linear_928_1395" x1="76.1541" y1="24.6896" x2="16.416" y2="91.1223" gradientUnits="userSpaceOnUse">
<stop stop-color="#D80000"/>
<stop offset="1" stop-color="#173193"/>
</linearGradient>
<linearGradient id="paint18_linear_928_1395" x1="46.7051" y1="25.8232" x2="43.6472" y2="88.8801" gradientUnits="userSpaceOnUse">
<stop stop-color="#B25864"/>
<stop offset="0.25" stop-color="#B84A4E"/>
<stop offset="0.5" stop-color="#7B5050"/>
<stop offset="0.75" stop-color="#514550"/>
<stop offset="1" stop-color="#514688"/>
</linearGradient>
<linearGradient id="paint19_linear_928_1395" x1="54.9716" y1="115.027" x2="5.7527" y2="153.551" gradientUnits="userSpaceOnUse">
<stop offset="0.215" stop-color="#A4C4E4"/>
<stop offset="1" stop-color="#2C28AA"/>
</linearGradient>
<radialGradient id="paint20_radial_928_1395" cx="0" cy="0" r="1" gradientUnits="userSpaceOnUse" gradientTransform="translate(100.662 -4.49795) rotate(65.0603) scale(27.4085 21.7218)">
<stop stop-color="#D80000"/>
<stop offset="1" stop-color="#081936"/>
</radialGradient>
<radialGradient id="paint21_radial_928_1395" cx="0" cy="0" r="1" gradientUnits="userSpaceOnUse" gradientTransform="translate(10.7393 1.01948) rotate(89.4025) scale(7.22063 13.2524)">
<stop stop-color="#D80000"/>
<stop offset="1" stop-color="#2753F9"/>
</radialGradient>
</defs>
</svg>
